{
	"patcher" : 	{
		"fileversion" : 1,
		"rect" : [ 569.0, 130.0, 258.0, 254.0 ],
		"bglocked" : 0,
		"defrect" : [ 569.0, 130.0, 258.0, 254.0 ],
		"openrect" : [ 0.0, 0.0, 0.0, 0.0 ],
		"openinpresentation" : 0,
		"default_fontsize" : 12.0,
		"default_fontface" : 0,
		"default_fontname" : "Arial",
		"gridonopen" : 0,
		"gridsize" : [ 10.0, 10.0 ],
		"gridsnaponopen" : 0,
		"toolbarvisible" : 1,
		"boxanimatetime" : 200,
		"imprint" : 0,
		"enablehscroll" : 1,
		"enablevscroll" : 1,
		"devicewidth" : 0.0,
		"boxes" : [ 			{
				"box" : 				{
					"maxclass" : "message",
					"patching_rect" : [ 149.0, 76.0, 50.0, 18.0 ],
					"numinlets" : 2,
					"fontsize" : 12.0,
					"id" : "obj-2",
					"numoutlets" : 1,
					"outlettype" : [ "" ],
					"fontname" : "Arial"
				}

			}
, 			{
				"box" : 				{
					"maxclass" : "message",
					"text" : "0., $1 70. 0. 2000.",
					"patching_rect" : [ 110.0, 110.0, 107.0, 18.0 ],
					"numinlets" : 2,
					"fontsize" : 12.0,
					"id" : "obj-12",
					"numoutlets" : 1,
					"outlettype" : [ "" ],
					"fontname" : "Arial"
				}

			}
, 			{
				"box" : 				{
					"maxclass" : "newobj",
					"text" : "line~",
					"patching_rect" : [ 110.0, 140.0, 36.0, 20.0 ],
					"numinlets" : 2,
					"fontsize" : 12.0,
					"id" : "obj-11",
					"numoutlets" : 2,
					"outlettype" : [ "signal", "bang" ],
					"fontname" : "Arial"
				}

			}
, 			{
				"box" : 				{
					"maxclass" : "newobj",
					"text" : "*~",
					"patching_rect" : [ 20.0, 170.0, 108.5, 20.0 ],
					"numinlets" : 2,
					"fontsize" : 12.0,
					"id" : "obj-9",
					"numoutlets" : 1,
					"outlettype" : [ "signal" ],
					"fontname" : "Arial"
				}

			}
, 			{
				"box" : 				{
					"maxclass" : "newobj",
					"text" : "*~",
					"patching_rect" : [ 20.0, 110.0, 77.5, 20.0 ],
					"numinlets" : 2,
					"fontsize" : 12.0,
					"id" : "obj-3",
					"numoutlets" : 1,
					"outlettype" : [ "signal" ],
					"fontname" : "Arial"
				}

			}
, 			{
				"box" : 				{
					"maxclass" : "newobj",
					"text" : "thispoly~",
					"patching_rect" : [ 70.0, 200.0, 58.0, 20.0 ],
					"numinlets" : 1,
					"fontsize" : 12.0,
					"id" : "obj-8",
					"numoutlets" : 2,
					"outlettype" : [ "int", "int" ],
					"fontname" : "Arial"
				}

			}
, 			{
				"box" : 				{
					"maxclass" : "newobj",
					"text" : "unpack 0 0.",
					"patching_rect" : [ 20.0, 50.0, 78.0, 20.0 ],
					"numinlets" : 1,
					"fontsize" : 12.0,
					"id" : "obj-1",
					"numoutlets" : 2,
					"outlettype" : [ "int", "float" ],
					"fontname" : "Arial"
				}

			}
, 			{
				"box" : 				{
					"maxclass" : "newobj",
					"text" : "out~ 1",
					"patching_rect" : [ 20.0, 200.0, 44.0, 20.0 ],
					"numinlets" : 1,
					"fontsize" : 12.0,
					"id" : "obj-6",
					"numoutlets" : 0,
					"fontname" : "Arial",
					"saved_object_attributes" : 					{
						"attr_comment" : ""
					}

				}

			}
, 			{
				"box" : 				{
					"maxclass" : "newobj",
					"text" : "cycle~",
					"patching_rect" : [ 20.0, 80.0, 45.0, 20.0 ],
					"numinlets" : 2,
					"fontsize" : 12.0,
					"id" : "obj-5",
					"numoutlets" : 1,
					"outlettype" : [ "signal" ],
					"fontname" : "Arial"
				}

			}
, 			{
				"box" : 				{
					"maxclass" : "newobj",
					"text" : "in 1",
					"patching_rect" : [ 20.0, 20.0, 30.0, 20.0 ],
					"numinlets" : 1,
					"fontsize" : 12.0,
					"id" : "obj-4",
					"numoutlets" : 1,
					"outlettype" : [ "" ],
					"fontname" : "Arial",
					"saved_object_attributes" : 					{

					}

				}

			}
 ],
		"lines" : [ 			{
				"patchline" : 				{
					"source" : [ "obj-1", 1 ],
					"destination" : [ "obj-2", 1 ],
					"hidden" : 0,
					"midpoints" : [  ]
				}

			}
, 			{
				"patchline" : 				{
					"source" : [ "obj-9", 0 ],
					"destination" : [ "obj-8", 0 ],
					"hidden" : 0,
					"midpoints" : [  ]
				}

			}
, 			{
				"patchline" : 				{
					"source" : [ "obj-9", 0 ],
					"destination" : [ "obj-6", 0 ],
					"hidden" : 0,
					"midpoints" : [  ]
				}

			}
, 			{
				"patchline" : 				{
					"source" : [ "obj-5", 0 ],
					"destination" : [ "obj-3", 0 ],
					"hidden" : 0,
					"midpoints" : [  ]
				}

			}
, 			{
				"patchline" : 				{
					"source" : [ "obj-4", 0 ],
					"destination" : [ "obj-1", 0 ],
					"hidden" : 0,
					"midpoints" : [  ]
				}

			}
, 			{
				"patchline" : 				{
					"source" : [ "obj-3", 0 ],
					"destination" : [ "obj-9", 0 ],
					"hidden" : 0,
					"midpoints" : [  ]
				}

			}
, 			{
				"patchline" : 				{
					"source" : [ "obj-12", 0 ],
					"destination" : [ "obj-11", 0 ],
					"hidden" : 0,
					"midpoints" : [  ]
				}

			}
, 			{
				"patchline" : 				{
					"source" : [ "obj-11", 0 ],
					"destination" : [ "obj-9", 1 ],
					"hidden" : 0,
					"midpoints" : [  ]
				}

			}
, 			{
				"patchline" : 				{
					"source" : [ "obj-1", 0 ],
					"destination" : [ "obj-5", 0 ],
					"hidden" : 0,
					"midpoints" : [  ]
				}

			}
, 			{
				"patchline" : 				{
					"source" : [ "obj-1", 1 ],
					"destination" : [ "obj-3", 1 ],
					"hidden" : 0,
					"midpoints" : [  ]
				}

			}
, 			{
				"patchline" : 				{
					"source" : [ "obj-1", 1 ],
					"destination" : [ "obj-12", 0 ],
					"hidden" : 0,
					"midpoints" : [ 88.5, 90.5, 119.5, 90.5 ]
				}

			}
 ]
	}

}
